<?xml version="1.0" encoding="UTF-8"?>
<svg id="fatal_flaw_bars" data-name="fatal flaw bars" xmlns="http://www.w3.org/2000/svg" viewBox="0 0 288 288">
  <defs>
    <style>
      .cls-1 {
        fill: #cbb6d9;
        stroke: #552e8c;
        stroke-dasharray: 0 0 31.95 10.65;
        stroke-miterlimit: 10;
        stroke-width: 5.67px;
      }
    </style>
  </defs>
  <path class="cls-1" d="M139.46,225.5s-44.68-60-9.42-98.75c35.26-38.75,78.83-20,78.83-20,0,0,45.18,23.75,31.43,42.5-13.75,18.75-11.04,61.25,2.6,65,13.65,3.75,2.4,67.5-20.1,52.5-22.5-15-63.19.97-83.34-41.25Z"/>
  <path class="cls-1" d="M49.62,117.39s-20.33-6.02-15.65-20.05c4.68-14.04,1.03-38.1,25.91-69.51,24.88-31.41,43.4,11.36,43.4,11.36,0,0,7.63,12.7,1.25,47.45-6.39,34.75-29.49,33.42-29.49,33.42,0,0-12.36,5.2-25.41-2.67Z"/>
</svg>