<?xml version="1.0" standalone="no"?>
<!DOCTYPE svg PUBLIC "-//W3C//DTD SVG 20010904//EN"
 "http://www.w3.org/TR/2001/REC-SVG-20010904/DTD/svg10.dtd">
<svg version="1.0" xmlns="http://www.w3.org/2000/svg"
 width="700.000000pt" height="700.000000pt" viewBox="0 0 700.000000 700.000000"
 preserveAspectRatio="xMidYMid meet">
<metadata>
Created by potrace 1.14, written by Peter Selinger 2001-2017
</metadata>
<g transform="translate(0.000000,700.000000) scale(0.100000,-0.100000)"
fill="#000000" stroke="none">
<path d="M1949 6655 c-1 -8 -3 -19 -4 -25 -1 -5 -3 -13 -4 -18 0 -4 -25 -8
-53 -10 -55 -2 -138 -26 -173 -48 -19 -12 -23 -11 -39 16 l-17 30 -31 -17
c-51 -30 -174 -150 -242 -237 -60 -76 -173 -241 -224 -327 l-22 -37 30 -12
c16 -7 30 -14 30 -17 0 -2 -18 -39 -39 -81 -21 -42 -47 -94 -56 -115 -13 -28
-22 -36 -34 -31 -45 18 -48 17 -76 -53 -66 -162 -137 -440 -160 -623 -4 -30
-9 -58 -11 -61 -2 -4 12 -10 32 -14 l36 -6 -7 -42 c-3 -23 -8 -55 -11 -72 -2
-16 -9 -54 -16 -84 -12 -53 -12 -53 -44 -48 -30 5 -34 3 -43 -26 -54 -178 -31
-299 78 -414 46 -49 135 -114 201 -146 104 -50 283 -127 296 -127 9 0 23 -4
32 -9 54 -28 269 -34 373 -11 41 10 91 21 112 24 37 7 38 8 31 42 -5 30 -4 34
15 35 11 1 24 2 29 4 4 1 21 5 37 9 17 5 59 22 94 39 52 24 65 27 72 16 26
-43 25 -43 71 -11 153 106 290 326 362 584 21 74 20 78 -8 78 -14 0 -27 4 -31
9 -5 9 11 129 30 221 2 8 4 20 4 25 1 7 16 9 36 7 29 -3 35 -1 36 14 1 11 3
28 4 39 29 204 28 596 -1 711 -6 21 -10 24 -38 19 l-32 -6 -18 70 c-10 38 -29
93 -42 121 -13 29 -24 53 -24 55 0 1 13 8 30 15 l29 12 -21 42 c-80 159 -226
333 -348 415 -98 66 -229 109 -231 76z"/>
<path d="M4523 4564 c0 -49 1 -49 -86 -50 -45 -1 -102 -3 -127 -5 -44 -4 -45
-3 -48 29 -4 39 -13 40 -155 11 -173 -35 -350 -102 -526 -198 -75 -42 -78 -46
-58 -80 17 -28 16 -29 -11 -46 -15 -10 -61 -44 -103 -76 l-76 -57 -25 24 -24
24 -83 -82 c-177 -174 -279 -323 -347 -506 -26 -67 -25 -82 6 -82 30 0 32 -14
11 -97 -16 -63 -26 -118 -31 -162 0 -2 -14 -1 -30 1 -17 3 -33 1 -36 -4 -17
-27 -10 -313 11 -453 10 -70 57 -269 71 -303 12 -29 16 -32 33 -23 32 18 37
14 60 -51 12 -35 26 -72 30 -83 27 -65 31 -77 31 -90 0 -7 -13 -16 -29 -20
-34 -7 -35 -3 19 -120 71 -158 172 -341 275 -500 28 -44 76 -123 105 -175 30
-52 78 -127 107 -167 52 -71 186 -213 201 -213 4 0 15 11 25 24 l18 24 77 -55
c42 -31 91 -62 109 -71 31 -15 32 -16 17 -45 -9 -16 -12 -33 -7 -38 33 -33
367 -139 488 -155 28 -3 53 -8 56 -10 4 -2 28 -6 55 -9 27 -3 56 -8 64 -10 8
-2 34 -7 57 -10 41 -6 42 -5 45 27 4 38 1 38 133 19 130 -18 127 -17 119 -57
-5 -27 -3 -34 10 -34 9 0 17 0 19 0 1 0 43 -11 92 -24 114 -31 208 -66 265
-100 120 -72 172 -90 245 -90 39 1 85 7 102 15 32 14 33 14 18 43 -9 16 -14
30 -13 30 33 18 104 83 134 123 43 57 49 60 81 38 22 -15 23 -14 57 52 88 177
148 416 160 642 l4 71 -34 0 c-31 0 -34 3 -35 30 -3 67 -19 178 -30 206 -7 20
-4 25 26 35 l34 13 -19 36 c-32 63 -67 96 -133 127 -69 34 -104 71 -143 158
-30 64 -62 172 -70 235 -8 59 -10 62 -45 56 -16 -2 -31 -1 -34 4 -3 5 -8 63
-11 129 l-6 121 36 0 c35 0 36 1 37 38 1 110 14 209 44 344 23 103 83 271 111
312 12 18 10 22 -17 38 -29 18 -30 20 -15 41 43 59 76 126 82 165 6 41 7 42
40 38 34 -3 34 -3 34 38 0 126 -79 275 -227 428 -64 67 -199 186 -221 195 -6
3 -20 -5 -31 -18 l-18 -23 -30 20 c-34 21 -176 115 -182 120 -2 2 4 15 13 29
9 14 14 30 11 34 -11 18 -170 105 -234 128 -67 25 -194 57 -265 68 -21 3 -41
7 -45 9 -4 3 -54 8 -113 11 -99 7 -106 6 -105 -11z"/>
</g>
</svg>
